<svg width="38" height="23" viewBox="0 0 38 23" fill="none" xmlns="http://www.w3.org/2000/svg">
<path d="M1.5 9.5459C0.671573 9.5459 0 10.2175 0 11.0459C0 11.8743 0.671573 12.5459 1.5 12.5459V11.0459V9.5459ZM36.5754 12.1066C37.1611 11.5208 37.1611 10.571 36.5754 9.98524L27.0294 0.439297C26.4436 -0.14649 25.4939 -0.14649 24.9081 0.439297C24.3223 1.02508 24.3223 1.97483 24.9081 2.56062L33.3934 11.0459L24.9081 19.5312C24.3223 20.117 24.3223 21.0667 24.9081 21.6525C25.4939 22.2383 26.4436 22.2383 27.0294 21.6525L36.5754 12.1066ZM1.5 11.0459V12.5459H35.5147V11.0459V9.5459H1.5V11.0459Z" fill="#F6E3D4"/>
</svg>
