<svg width="24" height="24" viewBox="0 0 24 24" fill="none" xmlns="http://www.w3.org/2000/svg">
<path d="M3.9995 13.9983C3.81029 13.9989 3.62478 13.9459 3.46452 13.8453C3.30426 13.7447 3.17584 13.6007 3.09416 13.43C3.01249 13.2593 2.98092 13.069 3.00312 12.8811C3.02533 12.6932 3.10039 12.5154 3.2196 12.3685L13.1184 2.16971C13.1926 2.08401 13.2938 2.02609 13.4053 2.00547C13.5168 1.98485 13.6321 2.00275 13.732 2.05623C13.832 2.10972 13.9109 2.19561 13.9556 2.29981C14.0004 2.40401 14.0084 2.52032 13.9783 2.62966L12.0585 8.64892C12.0019 8.80043 11.9829 8.9634 12.0031 9.12387C12.0233 9.28434 12.0822 9.43751 12.1746 9.57024C12.267 9.70297 12.3903 9.8113 12.5337 9.88593C12.6772 9.96057 12.8367 9.99928 12.9984 9.99876H19.9975C20.1868 9.99811 20.3723 10.0512 20.5325 10.1518C20.6928 10.2524 20.8212 10.3964 20.9029 10.567C20.9846 10.7377 21.0161 10.9281 20.9939 11.116C20.9717 11.3039 20.8967 11.4816 20.7775 11.6286L10.8787 21.8273C10.8044 21.913 10.7032 21.9709 10.5917 21.9916C10.4802 22.0122 10.365 21.9943 10.265 21.9408C10.165 21.8873 10.0862 21.8014 10.0414 21.6972C9.99669 21.593 9.98869 21.4767 10.0188 21.3674L11.9385 15.3481C11.9951 15.1966 12.0142 15.0336 11.9939 14.8732C11.9737 14.7127 11.9149 14.5595 11.8225 14.4268C11.73 14.2941 11.6068 14.1857 11.4633 14.1111C11.3198 14.0365 11.1604 13.9977 10.9986 13.9983H3.9995Z" stroke="#F6E3D4" stroke-width="1.99976" stroke-linecap="round" stroke-linejoin="round"/>
</svg>
